<svg width="19" height="17" viewBox="0 0 19 17" fill="none" xmlns="http://www.w3.org/2000/svg">
<path d="M12.5 4.16683C12.5 3.39185 12.5 3.00436 12.4148 2.68645C12.1836 1.82372 11.5098 1.14985 10.647 0.918682C10.3291 0.833496 9.94162 0.833496 9.16665 0.833496C8.39167 0.833496 8.00418 0.833496 7.68627 0.918682C6.82354 1.14985 6.14967 1.82372 5.9185 2.68645C5.83331 3.00436 5.83331 3.39185 5.83331 4.16683M3.49998 15.8335H14.8333C15.7667 15.8335 16.2334 15.8335 16.59 15.6518C16.9036 15.4921 17.1585 15.2371 17.3183 14.9235C17.5 14.567 17.5 14.1003 17.5 13.1668V6.8335C17.5 5.90007 17.5 5.43336 17.3183 5.07685C17.1585 4.76324 16.9036 4.50827 16.59 4.34849C16.2334 4.16683 15.7667 4.16683 14.8333 4.16683H3.49998C2.56656 4.16683 2.09985 4.16683 1.74333 4.34849C1.42973 4.50827 1.17476 4.76324 1.01497 5.07685C0.833313 5.43336 0.833313 5.90008 0.833313 6.8335V13.1668C0.833313 14.1003 0.833313 14.567 1.01497 14.9235C1.17476 15.2371 1.42973 15.4921 1.74333 15.6518C2.09985 15.8335 2.56656 15.8335 3.49998 15.8335Z" stroke="white" stroke-width="1.66667" stroke-linecap="round" stroke-linejoin="round"/>
</svg>
