<svg width="14" height="15" viewBox="0 0 14 15" fill="none" xmlns="http://www.w3.org/2000/svg">
<path d="M9.41667 3.41667V2.88333C9.41667 2.1366 9.41667 1.76323 9.27134 1.47801C9.14351 1.22713 8.93954 1.02316 8.68865 0.895325C8.40344 0.75 8.03007 0.75 7.28333 0.75H6.21667C5.46993 0.75 5.09656 0.75 4.81135 0.895325C4.56046 1.02316 4.35649 1.22713 4.22866 1.47801C4.08333 1.76323 4.08333 2.1366 4.08333 2.88333V3.41667M5.41667 7.08333V10.4167M8.08333 7.08333V10.4167M0.75 3.41667H12.75M11.4167 3.41667V10.8833C11.4167 12.0034 11.4167 12.5635 11.1987 12.9913C11.0069 13.3676 10.701 13.6736 10.3246 13.8653C9.89682 14.0833 9.33677 14.0833 8.21667 14.0833H5.28333C4.16323 14.0833 3.60318 14.0833 3.17535 13.8653C2.79903 13.6736 2.49307 13.3676 2.30132 12.9913C2.08333 12.5635 2.08333 12.0034 2.08333 10.8833V3.41667" stroke="#A4A7AE" stroke-width="1.5" stroke-linecap="round" stroke-linejoin="round"/>
</svg>
