<svg width="19" height="14" viewBox="0 0 19 14" fill="none" xmlns="http://www.w3.org/2000/svg">
<path d="M1.05321 7.26102C0.939718 7.08132 0.882973 6.99147 0.851208 6.85289C0.827348 6.74879 0.827348 6.58462 0.851208 6.48053C0.882973 6.34194 0.939718 6.25209 1.05321 6.07239C1.99105 4.58741 4.7826 0.833374 9.03677 0.833374C13.2909 0.833374 16.0825 4.58741 17.0203 6.07239C17.1338 6.25209 17.1906 6.34194 17.2223 6.48053C17.2462 6.58462 17.2462 6.74879 17.2223 6.85289C17.1906 6.99147 17.1338 7.08132 17.0203 7.26102C16.0825 8.74601 13.2909 12.5 9.03677 12.5C4.7826 12.5 1.99105 8.74601 1.05321 7.26102Z" stroke="white" stroke-width="1.66667" stroke-linecap="round" stroke-linejoin="round"/>
<path d="M9.03677 9.16671C10.4175 9.16671 11.5368 8.04742 11.5368 6.66671C11.5368 5.286 10.4175 4.16671 9.03677 4.16671C7.65606 4.16671 6.53677 5.286 6.53677 6.66671C6.53677 8.04742 7.65606 9.16671 9.03677 9.16671Z" stroke="white" stroke-width="1.66667" stroke-linecap="round" stroke-linejoin="round"/>
</svg>
