<svg width="19" height="17" viewBox="0 0 19 17" fill="none" xmlns="http://www.w3.org/2000/svg">
<path d="M17.5 15.8333V14.1666C17.5 12.6134 16.4377 11.3083 15 10.9383M12.0833 1.07555C13.3049 1.57004 14.1667 2.76768 14.1667 4.16659C14.1667 5.56549 13.3049 6.76313 12.0833 7.25762M13.3333 15.8333C13.3333 14.2801 13.3333 13.5035 13.0796 12.891C12.7413 12.0742 12.0924 11.4253 11.2756 11.087C10.6631 10.8333 9.88648 10.8333 8.33334 10.8333H5.83334C4.2802 10.8333 3.50364 10.8333 2.89107 11.087C2.07431 11.4253 1.42539 12.0742 1.08708 12.891C0.833344 13.5035 0.833344 14.2801 0.833344 15.8333M10.4167 4.16659C10.4167 6.00753 8.92429 7.49992 7.08334 7.49992C5.24239 7.49992 3.75001 6.00753 3.75001 4.16659C3.75001 2.32564 5.24239 0.833252 7.08334 0.833252C8.92429 0.833252 10.4167 2.32564 10.4167 4.16659Z" stroke="white" stroke-width="1.66667" stroke-linecap="round" stroke-linejoin="round"/>
</svg>
