<svg width="19" height="17" viewBox="0 0 19 17" fill="none" xmlns="http://www.w3.org/2000/svg">
<path d="M13.3333 9.95086V7.44622C13.3333 7.29665 13.3333 7.22187 13.3106 7.15584C13.2904 7.09746 13.2576 7.04428 13.2143 7.00016C13.1655 6.95026 13.0986 6.91682 12.9648 6.84993L9.16666 4.95086M2.49999 5.78419V11.4564C2.49999 11.7663 2.49999 11.9213 2.54834 12.0569C2.59109 12.1769 2.66075 12.2854 2.75198 12.3743C2.85517 12.4748 2.99606 12.5393 3.27779 12.6685L8.61112 15.1129C8.81548 15.2066 8.91766 15.2534 9.02411 15.2719C9.11844 15.2883 9.21488 15.2883 9.30921 15.2719C9.41566 15.2534 9.51784 15.2066 9.7222 15.1129L15.0555 12.6685C15.3373 12.5393 15.4781 12.4748 15.5813 12.3743C15.6726 12.2854 15.7422 12.1769 15.785 12.0569C15.8333 11.9213 15.8333 11.7663 15.8333 11.4564V5.78419M0.833328 4.95086L8.86852 0.933264C8.97784 0.878605 9.0325 0.851276 9.08983 0.840519C9.14061 0.830992 9.19272 0.830992 9.24349 0.840519C9.30083 0.851276 9.35549 0.878605 9.4648 0.933264L17.5 4.95086L9.4648 8.96845C9.35549 9.02311 9.30083 9.05044 9.24349 9.0612C9.19272 9.07073 9.14061 9.07073 9.08983 9.0612C9.0325 9.05044 8.97784 9.02311 8.86852 8.96845L0.833328 4.95086Z" stroke="white" stroke-width="1.66667" stroke-linecap="round" stroke-linejoin="round"/>
</svg>
