<svg width="19" height="17" viewBox="0 0 19 17" fill="none" xmlns="http://www.w3.org/2000/svg">
<path d="M5.83333 15.8335V4.16683C5.83333 3.39185 5.83333 3.00436 5.91851 2.68645C6.14968 1.82372 6.82355 1.14985 7.68628 0.918682C8.0042 0.833496 8.39168 0.833496 9.16666 0.833496C9.94164 0.833496 10.3291 0.833496 10.647 0.918682C11.5098 1.14985 12.1836 1.82372 12.4148 2.68645C12.5 3.00436 12.5 3.39185 12.5 4.16683V15.8335M3.5 15.8335H14.8333C15.7667 15.8335 16.2335 15.8335 16.59 15.6518C16.9036 15.4921 17.1585 15.2371 17.3183 14.9235C17.5 14.567 17.5 14.1003 17.5 13.1668V6.8335C17.5 5.90007 17.5 5.43336 17.3183 5.07685C17.1585 4.76324 16.9036 4.50827 16.59 4.34849C16.2335 4.16683 15.7667 4.16683 14.8333 4.16683H3.49999C2.56657 4.16683 2.09986 4.16683 1.74334 4.34849C1.42974 4.50827 1.17477 4.76324 1.01498 5.07685C0.833328 5.43336 0.833328 5.90008 0.833328 6.8335V13.1668C0.833328 14.1003 0.833328 14.567 1.01498 14.9235C1.17477 15.2371 1.42974 15.4921 1.74334 15.6518C2.09986 15.8335 2.56657 15.8335 3.5 15.8335Z" stroke="white" stroke-width="1.66667" stroke-linecap="round" stroke-linejoin="round"/>
</svg>
