<svg width="32" height="32" viewBox="0 0 32 32" fill="none" xmlns="http://www.w3.org/2000/svg">
<path fill-rule="evenodd" clip-rule="evenodd" d="M23.8102 13.2567L13.5028 19.2256C13.5028 19.2256 13.0448 15.4835 15.5488 13.6021C17.6224 12.0441 22.5004 9.43591 22.5004 9.43591" fill="#067647"/>
<path fill-rule="evenodd" clip-rule="evenodd" d="M5.42115 19.4592C5.67199 20.3058 6.02505 21.1362 6.48584 21.9338C6.68677 22.2818 6.9031 22.615 7.13393 22.9334L3.03126 25.3092C3.03126 25.3092 2.58234 21.582 5.08699 19.7026C5.19163 19.6241 5.30353 19.5425 5.42115 19.4592Z" fill="#47CD89"/>
<path fill-rule="evenodd" clip-rule="evenodd" d="M29.4128 12.7908C30.1847 17.404 27.6409 23.064 23.3538 25.5394C17.8367 28.7247 10.7714 26.8314 7.58592 21.3143C4.40064 15.7971 6.29391 8.73211 11.811 5.54661C17.3282 2.36134 24.3936 4.25439 27.5789 9.7713C27.6293 9.85857 28.0705 10.6194 28.0894 10.796L23.6053 13.3672C23.5261 13.1977 23.241 12.4953 23.1463 12.3307C21.3735 9.26017 17.2923 7.86176 14.2216 9.63455C11.1511 11.4074 9.82544 15.7916 11.5982 18.8624C13.371 21.9327 17.9228 23.4019 20.9934 21.6291C21.991 21.0531 23.8258 19.678 24.639 17.5913C25.7588 14.7173 26.8365 13.8302 29.4128 12.7908Z" fill="#17B26A"/>
</svg>
