<svg width="27" height="24" viewBox="0 0 27 24" fill="none" xmlns="http://www.w3.org/2000/svg">
<path fill-rule="evenodd" clip-rule="evenodd" d="M20.8102 9.25675L10.5027 15.2256C10.5027 15.2256 10.0448 11.4835 12.5487 9.60212C14.6223 8.04411 19.5003 5.43591 19.5003 5.43591" fill="#067647"/>
<path fill-rule="evenodd" clip-rule="evenodd" d="M2.42115 15.4592C2.67199 16.3058 3.02505 17.1362 3.48584 17.9338C3.68677 18.2818 3.9031 18.615 4.13393 18.9334L0.0312581 21.3092C0.0312581 21.3092 -0.417657 17.582 2.08699 15.7026C2.19163 15.6241 2.30353 15.5425 2.42115 15.4592Z" fill="#47CD89"/>
<path fill-rule="evenodd" clip-rule="evenodd" d="M26.4129 8.79081C27.1847 13.404 24.641 19.064 20.3538 21.5394C14.8367 24.7247 7.77147 22.8314 4.58598 17.3143C1.4007 11.7971 3.29397 4.73211 8.8111 1.54661C14.3282 -1.63866 21.3937 0.254388 24.579 5.7713C24.6293 5.85857 25.0705 6.61944 25.0894 6.79597L20.6053 9.36723C20.5262 9.19774 20.2411 8.49534 20.1463 8.33068C18.3735 5.26017 14.2924 3.86176 11.2217 5.63455C8.15114 7.40735 6.8255 11.7916 8.5983 14.8624C10.3711 17.9327 14.9229 19.4019 17.9934 17.6291C18.9911 17.0531 20.8258 15.678 21.639 13.5913C22.7589 10.7173 23.8366 9.83022 26.4129 8.79081Z" fill="#17B26A"/>
</svg>
