<svg width="97" height="32" viewBox="0 0 97 32" fill="none" xmlns="http://www.w3.org/2000/svg">
<path fill-rule="evenodd" clip-rule="evenodd" d="M23.8102 13.2567L13.5028 19.2256C13.5028 19.2256 13.0448 15.4835 15.5488 13.6021C17.6224 12.0441 22.5004 9.43591 22.5004 9.43591" fill="#067647"/>
<path fill-rule="evenodd" clip-rule="evenodd" d="M5.42115 19.4592C5.67199 20.3058 6.02505 21.1362 6.48584 21.9338C6.68677 22.2818 6.9031 22.615 7.13393 22.9334L3.03126 25.3092C3.03126 25.3092 2.58234 21.582 5.08699 19.7026C5.19163 19.6241 5.30353 19.5425 5.42115 19.4592Z" fill="#47CD89"/>
<path fill-rule="evenodd" clip-rule="evenodd" d="M29.4128 12.7908C30.1847 17.404 27.6409 23.064 23.3538 25.5394C17.8367 28.7247 10.7714 26.8314 7.58592 21.3143C4.40064 15.7971 6.29391 8.73211 11.811 5.54661C17.3282 2.36134 24.3936 4.25439 27.5789 9.7713C27.6293 9.85857 28.0705 10.6194 28.0894 10.796L23.6053 13.3672C23.5261 13.1977 23.241 12.4953 23.1463 12.3307C21.3735 9.26017 17.2923 7.86176 14.2216 9.63455C11.1511 11.4074 9.82544 15.7916 11.5982 18.8624C13.371 21.9327 17.9228 23.4019 20.9934 21.6291C21.991 21.0531 23.8258 19.678 24.639 17.5913C25.7588 14.7173 26.8365 13.8302 29.4128 12.7908Z" fill="#17B26A"/>
<path d="M48.8343 12.588C48.501 11.9735 48.0426 11.5056 47.4592 11.1844C46.8758 10.8631 46.1952 10.7025 45.4173 10.7025C44.5562 10.7025 43.7922 10.898 43.1255 11.2891C42.4587 11.6802 41.9379 12.2388 41.5628 12.9651C41.1878 13.6913 41.0003 14.5293 41.0003 15.4791C41.0003 16.4567 41.1878 17.3087 41.5628 18.0349C41.9517 18.7612 42.4865 19.3198 43.1671 19.7109C43.8478 20.102 44.6395 20.2975 45.5424 20.2975C46.6536 20.2975 47.5634 20.0042 48.2718 19.4176C48.9802 18.817 49.4455 17.986 49.6677 16.9246H44.6673V14.683H52.543V17.2388C52.3485 18.2584 51.9318 19.2011 51.2929 20.067C50.6539 20.933 49.8275 21.6313 48.8135 22.162C47.8134 22.6788 46.6883 22.9372 45.4382 22.9372C44.0353 22.9372 42.7643 22.6229 41.6253 21.9944C40.5002 21.352 39.6113 20.4651 38.9584 19.3338C38.3195 18.2025 38 16.9176 38 15.4791C38 14.0405 38.3195 12.7556 38.9584 11.6243C39.6113 10.479 40.5002 9.59218 41.6253 8.96369C42.7643 8.32123 44.0283 8 45.4173 8C47.0564 8 48.4801 8.40503 49.6886 9.21508C50.897 10.0112 51.7304 11.1355 52.1888 12.588H48.8343Z" fill="#181D27"/>
<path d="M57.618 13.007C57.993 12.3925 58.4792 11.9106 59.0765 11.5615C59.6876 11.2123 60.3821 11.0377 61.16 11.0377V14.1173H60.3891C59.4723 14.1173 58.7778 14.3338 58.3056 14.7668C57.8472 15.1997 57.618 15.9539 57.618 17.0293V22.8115H54.7011V11.2053H57.618V13.007Z" fill="#181D27"/>
<path d="M62.3746 16.9665C62.3746 15.7933 62.6038 14.7528 63.0622 13.845C63.5344 12.9372 64.1664 12.2388 64.9582 11.75C65.7638 11.2612 66.6597 11.0168 67.6459 11.0168C68.5071 11.0168 69.2572 11.1913 69.8961 11.5405C70.549 11.8897 71.0699 12.3296 71.4588 12.8603V11.2053H74.3965V22.8115H71.4588V21.1145C71.0837 21.6592 70.5629 22.1131 69.8961 22.4763C69.2433 22.8254 68.4863 23 67.6251 23C66.6528 23 65.7638 22.7486 64.9582 22.2458C64.1664 21.743 63.5344 21.0377 63.0622 20.1299C62.6038 19.2081 62.3746 18.1536 62.3746 16.9665ZM71.4588 17.0084C71.4588 16.2961 71.3199 15.6885 71.0421 15.1858C70.7643 14.669 70.3892 14.2779 69.917 14.0126C69.4447 13.7332 68.9377 13.5936 68.396 13.5936C67.8543 13.5936 67.3542 13.7263 66.8959 13.9916C66.4375 14.257 66.0625 14.648 65.7708 15.1648C65.493 15.6676 65.3541 16.2682 65.3541 16.9665C65.3541 17.6648 65.493 18.2793 65.7708 18.8101C66.0625 19.3268 66.4375 19.7249 66.8959 20.0042C67.3681 20.2835 67.8682 20.4232 68.396 20.4232C68.9377 20.4232 69.4447 20.2905 69.917 20.0251C70.3892 19.7458 70.7643 19.3547 71.0421 18.852C71.3199 18.3352 71.4588 17.7207 71.4588 17.0084Z" fill="#181D27"/>
<path d="M83.6419 11.0377C85.017 11.0377 86.1282 11.4777 86.9755 12.3575C87.8228 13.2235 88.2464 14.4385 88.2464 16.0028V22.8115H85.3295V16.4008C85.3295 15.4791 85.1003 14.7737 84.6419 14.2849C84.1836 13.7821 83.5585 13.5307 82.7668 13.5307C81.9611 13.5307 81.3222 13.7821 80.8499 14.2849C80.3916 14.7737 80.1624 15.4791 80.1624 16.4008V22.8115H77.2454V11.2053H80.1624V12.6508C80.5513 12.148 81.0444 11.757 81.6417 11.4777C82.2528 11.1844 82.9196 11.0377 83.6419 11.0377Z" fill="#181D27"/>
<path d="M94.4164 13.6145V19.2291C94.4164 19.6201 94.5067 19.9064 94.6873 20.088C94.8818 20.2556 95.2012 20.3394 95.6457 20.3394H97V22.8115H95.1665C92.7079 22.8115 91.4787 21.6103 91.4787 19.2081V13.6145H90.1035V11.2053H91.4787V8.33519H94.4164V11.2053H97V13.6145H94.4164Z" fill="#181D27"/>
</svg>
