<svg width="22" height="20" viewBox="0 0 22 20" fill="none" xmlns="http://www.w3.org/2000/svg">
<path d="M14.1666 12.0833V9.57866C14.1666 9.4291 14.1666 9.35431 14.1439 9.28829C14.1237 9.22991 14.0908 9.17673 14.0476 9.1326C13.9988 9.08271 13.9319 9.04926 13.7981 8.98238L9.99996 7.08331M3.33329 7.91664V13.5888C3.33329 13.8987 3.33329 14.0537 3.38164 14.1894C3.42438 14.3093 3.49404 14.4179 3.58527 14.5067C3.68847 14.6072 3.82935 14.6718 4.11109 14.8009L9.44442 17.2454C9.64878 17.339 9.75096 17.3859 9.85741 17.4043C9.95174 17.4207 10.0482 17.4207 10.1425 17.4043C10.249 17.3859 10.3511 17.339 10.5555 17.2454L15.8888 14.8009C16.1706 14.6718 16.3114 14.6072 16.4146 14.5067C16.5059 14.4179 16.5755 14.3093 16.6183 14.1894C16.6666 14.0537 16.6666 13.8987 16.6666 13.5888V7.91664M1.66663 7.08331L9.70182 3.06571C9.81114 3.01105 9.86579 2.98372 9.92313 2.97297C9.9739 2.96344 10.026 2.96344 10.0768 2.97297C10.1341 2.98372 10.1888 3.01105 10.2981 3.06571L18.3333 7.08331L10.2981 11.1009C10.1888 11.1556 10.1341 11.1829 10.0768 11.1936C10.026 11.2032 9.9739 11.2032 9.92313 11.1936C9.86579 11.1829 9.81114 11.1556 9.70182 11.1009L1.66663 7.08331Z" stroke="currentColor" stroke-width="1.67" stroke-linecap="round" stroke-linejoin="round"/>
</svg>
